PathFileType	4	(X/Y/Z)	Patient4_TMGait_0pt4_02_right_08.trc.trc
DataRate	CameraRate	NumFrames	NumMarkers	Units	OrigDataRate	OrigDataStartFrame	OrigNumFrames
74.866310160428	74.866310160428	4	33	mm	74.866310160428	1	       141
Frame#	Time	Sacral			L.Shoulder			Chest			R.Shoulder			Neck			R.ASIS			L.ASIS			R.Thigh.Superior			R.Thigh.Lateral			R.Thigh.Inferior			R.Patella			L.Thigh.Superior			L.Thigh.Lateral			L.Thigh.Inferior			L.Patella			L.Shank.Superior			L.Shank.Lateral			L.Shank.Inferior			R.Shank.Superior			R.Shank.Lateral			R.Shank.Inferior			R.Heel			R.Midfoot.Superior			R.Midfoot.Lateral			R.Toe			L.Heel			L.Midfoot.Lateral			L.Midfoot.Superior			L.Toe			L.Elbow			L.Wrist			R.Elbow			R.Wrist			
		X1	Y1	Z1	X2	Y2	Z2	X3	Y3	Z3	X4	Y4	Z4	X5	Y5	Z5	X6	Y6	Z6	X7	Y7	Z7	X8	Y8	Z8	X9	Y9	Z9	X10	Y10	Z10	X11	Y11	Z11	X12	Y12	Z12	X13	Y13	Z13	X14	Y14	Z14	X15	Y15	Z15	X16	Y16	Z16	X17	Y17	Z17	X18	Y18	Z18	X19	Y19	Z19	X20	Y20	Z20	X21	Y21	Z21	X22	Y22	Z22	X23	Y23	Z23	X24	Y24	Z24	X25	Y25	Z25	X26	Y26	Z26	X27	Y27	Z27	X28	Y28	Z28	X29	Y29	Z29	X30	Y30	Z30	X31	Y31	Z31	X32	Y32	Z32	X33	Y33	Z33	

1	10.110000000000	874.802054989079	1009.353902276488	423.463354065383	1063.562929029968	1440.951436945950	239.051424776656	1157.549410519026	1376.156999668247	406.193653930373	1062.346687552033	1448.773819885560	574.599187283844	1035.883586703705	1502.557189438623	394.020295146915	1102.596650746385	957.271355127239	548.020805324852	1095.583543879774	966.957274101482	273.554481983011	1184.811721680885	783.103140538646	526.950596637799	1142.134016744527	663.699242374846	604.794259237840	1234.398793561031	621.710871601877	531.874250154398	1253.183978445203	512.618600293156	558.554024810542	1140.975757498715	752.124297711595	300.252535560773	1047.464838138466	636.149909619382	246.969171941865	1134.087597513271	559.016228755982	306.732399405775	1133.776348441865	490.151004726430	318.185145211139	1105.703118451017	417.580631110875	313.287138190864	1011.704949196342	303.341385255743	268.628832725941	1064.983588259280	193.477132511078	341.479239344029	1181.624955579954	434.240513865884	568.560834003249	1063.224567276876	389.547681687815	632.357140763873	1055.777375935425	276.998101050252	588.041768588688	859.368119497135	202.528487885930	566.503576742894	1030.900623390673	151.224941982709	602.511456514515	922.189102435002	144.577855745843	638.327780490334	1102.548409740573	42.674269806439	628.051311380613	937.709901056771	39.118036375204	395.016896947705	1007.395871980392	35.371882453809	310.301634572259	1092.112481514256	96.160631156625	332.586534827499	1219.440529274855	42.584685485723	298.611441343763	1113.082974518092	1110.068190252069	83.484125695202	1332.431346009872	964.503920174129	87.054192175063	1000.797726450154	1106.719291962633	695.458786140955	1060.280601457707	850.754309676854	700.649801795435	
2	10.123357142857	874.433376364242	1010.236114240272	421.703313762928	1065.749278874423	1441.354976928169	238.008701889956	1157.979785417099	1376.370424752029	405.992987671799	1061.523686869552	1449.446321520629	573.431331235851	1036.557954638567	1503.031918108570	392.811250233998	1101.375492393250	957.974581530226	547.590450790734	1095.861213617400	967.288856199849	273.180808090325	1184.300222926094	784.755082086511	526.834172267329	1142.487662190050	665.205975738111	604.987570538379	1234.422294306718	623.382974925884	531.659907483574	1254.642514215410	516.090025374440	558.681498943900	1138.347721543677	751.504117154652	300.595162808075	1043.623671809008	636.577155228897	246.277625978071	1128.935311920754	558.511521780250	306.295756138371	1127.724992699931	489.884001793028	317.579261960856	1099.742925987155	417.676098684853	312.627850074522	1005.529176793778	303.451178881008	268.297124718941	1059.100116182707	193.631427033270	341.090006064114	1186.806140250747	435.848247624001	568.967851005700	1071.844562962439	384.956833472573	633.152827986407	1070.628373259362	272.457876423288	588.998306477083	879.547928494086	187.388007222475	567.913375897864	1052.866086042686	145.796102726174	603.804654234704	945.274416515180	133.500759983831	639.983221950133	1130.084208541116	41.867528886887	629.638953231762	931.975204534310	39.196083365327	394.950555570355	1001.699255076073	35.341792633969	310.233225910701	1086.426560901695	96.225686769400	332.419570112960	1213.732677903614	42.647753431662	298.587017820773	1118.589598753358	1111.742989184887	81.953271931741	1342.182049095610	973.889265424991	85.923196412406	989.546707961967	1109.802937301759	692.672262714320	1038.321786418733	852.331186060579	696.961682908409	
3	10.136714285714	874.071323729948	1011.082887488643	419.990922113801	1067.921722465550	1441.695555307862	236.997292999181	1158.414939835146	1376.542080589717	405.817049952263	1060.723416682970	1450.091926168243	572.289027324538	1037.243096413359	1503.464977967397	391.624618947302	1100.180992472565	958.615028653610	547.209501974110	1096.131403665279	967.584746223272	272.835467423783	1183.684470081288	786.225267952640	526.740290132183	1142.629239378577	666.566893245938	605.193790507238	1234.173809426520	624.834113065607	531.453769914652	1255.791479527324	519.394566743776	558.777369130939	1135.736364589738	750.866932782897	300.947513228935	1039.818494818524	636.985791783618	245.605523417282	1123.816933851166	558.000820357785	305.881749185131	1121.709620943033	489.615352495389	317.003082571917	1093.825921924849	417.761016329958	311.993440831022	999.411927138305	303.548937474535	267.972449024148	1053.258637937358	193.772932952782	340.717392259699	1191.788866191625	437.366645217396	569.365794364894	1080.472947920910	380.266677923822	634.019305370941	1085.545674559327	267.931523418098	589.986533420937	900.049559738271	172.256213846613	569.424430698263	1075.043687176873	140.469269561134	605.146582305517	968.661605584794	122.507290196746	641.704174135504	1157.790698224169	41.243635192726	631.223839753969	926.277929301483	39.266494260403	394.886996832505	996.035454758041	35.311379966957	310.168371761645	1080.771815197160	96.284855936257	332.262062177970	1208.058186141375	42.707951541831	298.563625364300	1124.006690270388	1113.333516006029	80.474909298549	1351.710963446027	983.079389044260	84.845572042659	978.365699755404	1112.970537732619	689.927503690619	1016.701313589685	854.081986683591	693.370926278697	
4	10.150071428571	873.727528830244	1011.855129343502	418.383189290954	1070.059193611783	1441.916145511338	236.055395185469	1158.859901197682	1376.632706110644	405.693407871997	1059.975445433084	1450.681945183624	571.207537746230	1037.948266388412	1503.817129310607	390.492979639047	1099.040431068055	959.133759201520	546.925682689790	1096.393345837621	967.812931208325	272.551745622443	1182.857634241274	787.332317910622	526.701255150167	1142.350608893197	667.642423174865	605.436439303546	1233.410610565701	625.864334932864	531.277778663635	1256.345453948738	522.376398295228	558.819792899083	1133.175181182308	750.200777821630	301.318529188441	1036.098727297829	637.357800116446	244.979795351197	1118.784261467696	557.479906429553	305.518515206704	1115.788835232074	489.342034036980	316.488656504521	1088.012054815548	417.825110898987	311.413034550210	993.420759586567	303.627476514706	267.666102564517	1047.507264999889	193.890816424189	340.378755912094	1196.355423874029	438.730273460999	569.751971825954	1089.048826986739	375.457999116803	634.992918498617	1100.483497388355	263.521568102421	591.011713819286	921.044463701207	157.313417210891	571.066172772421	1097.470318158936	135.448080225600	606.537616567095	992.474445970998	111.810141884875	643.487850554168	1185.629636644640	41.067490947072	632.755985604818	920.657745117455	39.324262392326	394.828171100469	990.439823423879	35.281446526040	310.109975884524	1075.182559604434	96.333507797450	332.122513251068	1202.453443323562	42.762081253682	298.542226624513	1129.223390973900	1114.748982600285	79.116300705982	1360.769911570272	991.820612481747	83.883470860042	967.419555776103	1116.253647725555	687.284417285032	995.861282506177	856.117087129759	689.982484071700	
